<svg width="33" height="33" viewBox="0 0 33 33" fill="none" xmlns="http://www.w3.org/2000/svg">
<path fill-rule="evenodd" clip-rule="evenodd" d="M13.6108 7.85855C20.7994 1.00731 29.1777 1.8311 29.8828 1.91501C30.5133 1.99005 31.0105 2.48699 31.0856 3.11744C31.1698 3.82155 31.9933 12.2014 25.1422 19.3899C21.0041 23.7316 16.3845 25.1957 14.818 25.6256C14.3414 25.7565 13.8312 25.6216 13.4818 25.272L7.72894 19.5191C7.37945 19.1697 7.24442 18.6595 7.37525 18.1829C7.8052 16.6166 9.26894 11.9967 13.6108 7.85855Z" fill="#1C1F21" fill-opacity="0.4"/>
<path d="M14.761 6.83388C14.3752 7.15475 13.9914 7.49588 13.6109 7.85851C10.6741 10.6575 9.05407 13.6769 8.18005 15.8227C7.09683 15.8049 6.15774 15.9024 5.41953 16.0266C4.85075 16.1223 4.40459 16.2333 4.10805 16.3175C3.9599 16.3596 3.84953 16.3949 3.78031 16.4181C3.74573 16.4297 3.72146 16.4383 3.70796 16.4431L3.69596 16.4475C3.13459 16.6601 2.49987 16.4839 2.12844 16.0119C1.75605 15.5387 1.7349 14.8783 2.07624 14.3822L6.21166 8.37223C7.08399 7.14008 8.14826 6.48707 9.40692 6.2812C10.5444 6.09516 11.7613 6.29655 12.8786 6.49686L14.761 6.83388Z" fill="#1C1F21"/>
<path d="M21.541 14.2085C23.059 14.2085 24.291 12.9774 24.291 11.4585C24.291 9.93962 23.059 8.7085 21.541 8.7085C20.023 8.7085 18.791 9.93962 18.791 11.4585C18.791 12.9774 20.023 14.2085 21.541 14.2085Z" fill="#1C1F21"/>
<path fill-rule="evenodd" clip-rule="evenodd" d="M4.88557 22.2386C5.34696 22.0065 5.90517 22.0965 6.27034 22.4617L10.5385 26.7308C10.9036 27.096 10.9934 27.654 10.7614 28.1153C10.0453 29.5389 8.57645 30.5414 6.84925 30.5414H3.65632C2.99505 30.5414 2.45898 30.0053 2.45898 29.344V26.1513C2.45898 24.4233 3.46198 22.9547 4.88557 22.2386Z" fill="#1C1F21"/>
<path d="M17.1769 24.8207C17.1947 25.9038 17.0972 26.8426 16.973 27.5807C16.8773 28.1496 16.7663 28.5957 16.6821 28.8923C16.64 29.0404 16.6047 29.1508 16.5815 29.2201C16.5699 29.2546 16.5613 29.279 16.5565 29.2923L16.5521 29.3044C16.3395 29.8658 16.5157 30.5005 16.9876 30.8719C17.4608 31.2443 18.1213 31.2654 18.6174 30.9242L24.6124 26.7994L24.6276 26.7887C25.8598 25.9164 26.5128 24.8522 26.7185 23.5934C26.9044 22.4558 26.7031 21.2391 26.5027 20.1216L26.1658 18.2397C25.8449 18.6255 25.5039 19.0092 25.1413 19.3896C22.3422 22.3264 19.3227 23.9467 17.1769 24.8207Z" fill="#1C1F21"/>
</svg>
