<svg width="35" height="35" viewBox="0 0 35 35" fill="none" xmlns="http://www.w3.org/2000/svg">
<path d="M26.1796 13.3991C25.8179 8.89967 22.0923 5.34717 17.4996 5.34717C12.6676 5.34717 8.74957 9.26522 8.74957 14.0972C8.74957 14.7777 8.84484 15.4311 8.99068 16.0669C5.8854 16.1972 3.40234 18.7386 3.40234 21.8749C3.40234 25.0969 6.01373 27.7083 9.23568 27.7083H24.3051C28.3321 27.7083 31.5968 24.4436 31.5968 20.4166C31.5968 17.0411 29.2926 14.2294 26.1796 13.3991Z" fill="#1C1F21" fill-opacity="0.3"/>
<path d="M26.1796 13.3991C25.8179 8.89967 22.0923 5.34717 17.4996 5.34717C12.6676 5.34717 8.74957 9.26522 8.74957 14.0972C8.74957 14.7777 8.84484 15.4311 8.99068 16.0669C5.8854 16.1972 3.40234 18.7386 3.40234 21.8749C3.40234 25.0969 6.01373 27.7083 9.23568 27.7083H24.3051C28.3321 27.7083 31.5968 24.4436 31.5968 20.4166C31.5968 17.0411 29.2926 14.2294 26.1796 13.3991Z" stroke="#1C1F21" stroke-width="1.5" stroke-linecap="round" stroke-linejoin="round"/>
<path d="M18.8711 15.5556C20.2069 14.0642 22.1455 13.125 24.3058 13.125C24.9533 13.125 25.5833 13.2397 26.1803 13.3992" stroke="#1C1F21" stroke-width="1.5" stroke-linecap="round" stroke-linejoin="round"/>
</svg>
