<svg width="18" height="18" viewBox="0 0 18 18" fill="none" xmlns="http://www.w3.org/2000/svg">
<path d="M13.464 6.891C13.278 4.577 11.362 2.75 9 2.75C6.515 2.75 4.5 4.765 4.5 7.25C4.5 7.6 4.549 7.936 4.624 8.263C3.027 8.33 1.75 9.637 1.75 11.25C1.75 12.907 3.093 14.25 4.75 14.25H12.5C14.571 14.25 16.25 12.571 16.25 10.5C16.25 8.764 15.065 7.318 13.464 6.891Z" stroke="white" stroke-width="1.5" stroke-linecap="round" stroke-linejoin="round"/>
<path d="M9.70508 8C10.3921 7.233 11.3891 6.75 12.5001 6.75C12.8331 6.75 13.1571 6.809 13.4641 6.891" stroke="white" stroke-width="1.5" stroke-linecap="round" stroke-linejoin="round"/>
</svg>
