<svg width="30" height="30" viewBox="0 0 30 30" fill="none" xmlns="http://www.w3.org/2000/svg">
<path fill-rule="evenodd" clip-rule="evenodd" d="M1.66602 14.9998C1.66602 7.63599 7.6355 1.6665 14.9993 1.6665C22.3632 1.6665 28.3327 7.63599 28.3327 14.9998C28.3327 22.3637 22.3632 28.3332 14.9993 28.3332C7.6355 28.3332 1.66602 22.3637 1.66602 14.9998Z" fill="#1C1F21" fill-opacity="0.4"/>
<path d="M22.5543 5.9865C22.2826 6.19817 21.9326 6.29317 21.5926 6.23817C19.7359 5.9465 18.4093 6.10484 17.9576 6.66984C17.5909 7.1265 17.6759 8.05317 17.7509 8.86984C17.8543 10.0015 17.9826 11.4082 16.8059 12.1582C15.7562 12.8247 14.6698 12.2917 13.8748 11.9018C13.1648 11.5534 12.4893 11.2232 11.7926 11.4165C10.9126 11.6598 10.4293 12.5648 10.341 12.7432C9.9343 13.5682 10.0926 14.4382 10.3043 15.0365C12.4443 14.6148 14.2676 14.8348 15.736 15.6948C16.454 16.1161 17.0268 16.6908 17.5559 17.3248C17.9709 17.8232 18.0943 17.9448 18.3559 17.9932C18.8109 18.0848 19.2609 17.7865 19.9543 17.3048C20.9104 16.6378 21.9379 16.0453 23.1509 16.2748C24.4343 16.5182 25.4543 17.5415 26.2593 19.3632C26.5604 19.94 26.7656 20.4993 26.8856 21.0408C24.6784 25.365 20.1796 28.3332 15.001 28.3332C14.2264 28.3332 13.467 28.2668 12.7282 28.1393C12.9263 27.4397 13.1227 26.7453 13.1326 26.7098C13.2543 26.2832 13.4876 25.2132 13.0226 24.5165C12.8626 24.2748 12.6893 24.1765 12.3126 23.9782C11.6253 23.6162 11.0304 23.1738 10.6226 22.4965C10.1695 21.7443 10.0901 20.9417 10.136 20.0848C10.161 19.6465 10.1793 19.2998 10.0226 18.8632C9.80764 18.2665 9.38264 17.8648 8.89264 17.4982C8.62487 17.2687 8.31194 17.0823 8.0243 16.8782C6.21264 15.5548 4.74597 13.5582 3.6093 11.0015C3.30652 10.3975 3.0971 9.81462 2.9707 9.25342C5.12109 4.76995 9.70565 1.6665 15.001 1.6665C18.3644 1.6665 21.4411 2.91854 23.7894 4.98097L22.5543 5.9865Z" fill="#1C1F21"/>
</svg>
