<svg width="18" height="18" viewBox="0 0 18 18" fill="none" xmlns="http://www.w3.org/2000/svg">
<path d="M15.0077 6.08315L15.8887 4.64215C16.1047 4.28815 15.9937 3.82715 15.6407 3.61115C15.2867 3.39615 14.8257 3.50615 14.6097 3.85915L13.7027 5.34115C13.0247 5.01015 12.3147 4.75315 11.5787 4.57215L11.9117 2.91715C11.9937 2.51115 11.7297 2.11515 11.3247 2.03415C10.9197 1.95615 10.5227 2.21515 10.4417 2.62115L10.1027 4.30615C9.73867 4.26915 9.37067 4.24915 8.99967 4.24915C8.62867 4.24915 8.26067 4.26915 7.89667 4.30615L7.55767 2.62115C7.47567 2.21515 7.07767 1.95515 6.67467 2.03415C6.26867 2.11615 6.00567 2.51115 6.08767 2.91715L6.42067 4.57215C5.68467 4.75315 4.97467 5.01015 4.29667 5.34115L3.38967 3.85915C3.17467 3.50615 2.71267 3.39615 2.35867 3.61115C2.00567 3.82715 1.89467 4.28915 2.11067 4.64215L2.99167 6.08315C2.39767 6.48515 1.83767 6.95015 1.32367 7.47515C1.03367 7.77015 1.03867 8.24615 1.33467 8.53615C1.62967 8.82615 2.10467 8.82115 2.39567 8.52515C4.14967 6.73615 6.49567 5.75115 9.00067 5.75115C11.5057 5.75115 13.8517 6.73615 15.6057 8.52515C15.7527 8.67515 15.9467 8.75015 16.1417 8.75015C16.3307 8.75015 16.5207 8.67915 16.6667 8.53615C16.9627 8.24615 16.9677 7.77115 16.6777 7.47515C16.1627 6.95015 15.6037 6.48515 15.0097 6.08315H15.0077Z" fill="white"/>
<path d="M9 14C10.933 14 12.5 12.433 12.5 10.5C12.5 8.567 10.933 7 9 7C7.067 7 5.5 8.567 5.5 10.5C5.5 12.433 7.067 14 9 14Z" fill="white"/>
</svg>
