<svg width="250" height="54" viewBox="0 0 250 54" fill="none" xmlns="http://www.w3.org/2000/svg">
<g clip-path="url(#clip0_100_5)">
<path d="M239.5 0.5H10.5C4.97715 0.5 0.5 4.97715 0.5 10.5V43.5C0.5 49.0228 4.97715 53.5 10.5 53.5H239.5C245.023 53.5 249.5 49.0228 249.5 43.5V10.5C249.5 4.97715 245.023 0.5 239.5 0.5Z" stroke="#909090"/>
<path d="M56.4365 16.6709H55.061V19H53.7163V12.5225H56.5376C57.188 12.5225 57.7065 12.6895 58.0933 13.0234C58.48 13.3574 58.6733 13.8745 58.6733 14.5747C58.6733 15.3394 58.48 15.8799 58.0933 16.1963C57.7065 16.5127 57.1543 16.6709 56.4365 16.6709ZM57.0693 15.3218C57.2451 15.1665 57.333 14.9204 57.333 14.5835C57.333 14.2466 57.2437 14.0063 57.0649 13.8628C56.8892 13.7192 56.6416 13.6475 56.3223 13.6475H55.061V15.5547H56.3223C56.6416 15.5547 56.8906 15.4771 57.0693 15.3218ZM62.4395 16.46H61.042V19H59.7192V12.5225H62.8965C63.3506 12.5312 63.6992 12.5869 63.9424 12.6895C64.1885 12.792 64.3965 12.9429 64.5664 13.1421C64.707 13.3062 64.8184 13.4878 64.9004 13.687C64.9824 13.8862 65.0234 14.1133 65.0234 14.3682C65.0234 14.6758 64.9458 14.979 64.7905 15.2778C64.6353 15.5737 64.3789 15.7832 64.0215 15.9062C64.3203 16.0264 64.5312 16.1978 64.6543 16.4204C64.7803 16.6401 64.8433 16.9771 64.8433 17.4312V17.8662C64.8433 18.1621 64.855 18.3628 64.8784 18.4683C64.9136 18.6353 64.9956 18.7583 65.1245 18.8374V19H63.6348C63.5938 18.8564 63.5645 18.7407 63.5469 18.6528C63.5117 18.4712 63.4927 18.2852 63.4897 18.0947L63.481 17.4927C63.4751 17.0796 63.3989 16.8042 63.2524 16.6665C63.1089 16.5288 62.8379 16.46 62.4395 16.46ZM63.2612 15.2822C63.5308 15.1592 63.6655 14.916 63.6655 14.5527C63.6655 14.1602 63.5352 13.8965 63.2744 13.7617C63.1279 13.6855 62.9082 13.6475 62.6152 13.6475H61.042V15.3877H62.5757C62.8804 15.3877 63.1089 15.3525 63.2612 15.2822ZM69.0576 19.1802C68.1318 19.1802 67.4243 18.9282 66.9351 18.4243C66.2788 17.8062 65.9507 16.9155 65.9507 15.7524C65.9507 14.5659 66.2788 13.6753 66.9351 13.0806C67.4243 12.5767 68.1318 12.3247 69.0576 12.3247C69.9834 12.3247 70.6909 12.5767 71.1802 13.0806C71.8335 13.6753 72.1602 14.5659 72.1602 15.7524C72.1602 16.9155 71.8335 17.8062 71.1802 18.4243C70.6909 18.9282 69.9834 19.1802 69.0576 19.1802ZM70.3364 17.4399C70.6499 17.0444 70.8066 16.4819 70.8066 15.7524C70.8066 15.0259 70.6484 14.4648 70.332 14.0693C70.0186 13.6709 69.5938 13.4717 69.0576 13.4717C68.5215 13.4717 68.0938 13.6694 67.7744 14.0649C67.4551 14.4604 67.2954 15.0229 67.2954 15.7524C67.2954 16.4819 67.4551 17.0444 67.7744 17.4399C68.0938 17.8354 68.5215 18.0332 69.0576 18.0332C69.5938 18.0332 70.02 17.8354 70.3364 17.4399ZM75.9878 19H73.1973V12.5225H75.9878C76.3892 12.5283 76.7231 12.5752 76.9897 12.6631C77.4438 12.8125 77.8115 13.0864 78.0928 13.4849C78.3184 13.8071 78.4722 14.1558 78.5542 14.5308C78.6362 14.9058 78.6772 15.2632 78.6772 15.603C78.6772 16.4644 78.5044 17.1938 78.1587 17.7915C77.6899 18.5972 76.9663 19 75.9878 19ZM76.9941 14.1748C76.7861 13.8232 76.3745 13.6475 75.7593 13.6475H74.5112V17.875H75.7593C76.3979 17.875 76.8433 17.5601 77.0952 16.9302C77.2329 16.5845 77.3018 16.1729 77.3018 15.6953C77.3018 15.0361 77.1992 14.5293 76.9941 14.1748ZM83.5332 16.5039V12.5225H84.9087V16.5039C84.9087 17.1924 84.8018 17.7285 84.5879 18.1123C84.1895 18.8154 83.4292 19.167 82.3071 19.167C81.1851 19.167 80.4233 18.8154 80.022 18.1123C79.8081 17.7285 79.7012 17.1924 79.7012 16.5039V12.5225H81.0767V16.5039C81.0767 16.9492 81.1294 17.2744 81.2349 17.4795C81.3989 17.8428 81.7563 18.0244 82.3071 18.0244C82.855 18.0244 83.2109 17.8428 83.375 17.4795C83.4805 17.2744 83.5332 16.9492 83.5332 16.5039ZM90.7754 18.5166C90.292 18.959 89.6738 19.1802 88.9209 19.1802C87.9893 19.1802 87.2568 18.8813 86.7236 18.2837C86.1904 17.6831 85.9238 16.8599 85.9238 15.814C85.9238 14.6831 86.2271 13.8115 86.8335 13.1992C87.3608 12.666 88.0317 12.3994 88.8462 12.3994C89.936 12.3994 90.7329 12.7568 91.2368 13.4717C91.5151 13.873 91.6646 14.2759 91.6851 14.6802H90.3315C90.2437 14.3696 90.1309 14.1353 89.9932 13.9771C89.7471 13.6958 89.3823 13.5552 88.8989 13.5552C88.4067 13.5552 88.0186 13.7544 87.7344 14.1528C87.4502 14.5483 87.3081 15.1094 87.3081 15.8359C87.3081 16.5625 87.4575 17.1074 87.7563 17.4707C88.0581 17.8311 88.4404 18.0112 88.9033 18.0112C89.3779 18.0112 89.7397 17.856 89.9888 17.5454C90.1265 17.3784 90.2407 17.1279 90.3315 16.7939H91.6719C91.5547 17.5 91.2559 18.0742 90.7754 18.5166ZM97.4155 12.5225V13.6694H95.4775V19H94.1152V13.6694H92.1685V12.5225H97.4155ZM104.579 19V16.1084H102.047V19H100.707V12.5225H102.047V14.9922H104.579V12.5225H105.923V19H104.579ZM111.052 16.5039V12.5225H112.427V16.5039C112.427 17.1924 112.32 17.7285 112.106 18.1123C111.708 18.8154 110.948 19.167 109.826 19.167C108.704 19.167 107.942 18.8154 107.541 18.1123C107.327 17.7285 107.22 17.1924 107.22 16.5039V12.5225H108.595V16.5039C108.595 16.9492 108.648 17.2744 108.753 17.4795C108.917 17.8428 109.275 18.0244 109.826 18.0244C110.374 18.0244 110.729 17.8428 110.894 17.4795C110.999 17.2744 111.052 16.9492 111.052 16.5039ZM118.962 19H117.608L114.963 14.3989V19H113.702V12.5225H115.121L117.701 17.0444V12.5225H118.962V19ZM124.934 12.5225V13.6694H122.996V19H121.634V13.6694H119.687V12.5225H124.934Z" fill="#909090"/>
<path d="M54.5547 32.2812H52.9609L53.3125 30.9688H54.9062L55.7578 27.8203H57.3125L56.4609 30.9688H57.7578L58.5859 27.8203H60.1406L59.3125 30.9688H60.8828L60.5312 32.2812H58.9609L58.3281 34.5625H59.9219L59.5703 35.875H57.9766L57.1406 39H55.5859L56.4219 35.875H55.1406L54.2891 39H52.7344L53.5859 35.875H52L52.3516 34.5625H53.9375L54.5547 32.2812ZM56.7734 34.5625L57.4062 32.2812H56.1094L55.5 34.5625H56.7734ZM66.9609 39H64.6797V31.1875H62.0156V29.6719C62.7188 29.6406 63.2109 29.5938 63.4922 29.5312C63.9401 29.4323 64.3047 29.2344 64.5859 28.9375C64.7786 28.7344 64.9245 28.4635 65.0234 28.125C65.0807 27.9219 65.1094 27.7708 65.1094 27.6719H66.9609V39ZM80.375 34.8594H77.9297V39H75.5391V27.4844H80.5547C81.7109 27.4844 82.6328 27.7812 83.3203 28.375C84.0078 28.9688 84.3516 29.888 84.3516 31.1328C84.3516 32.4922 84.0078 33.4531 83.3203 34.0156C82.6328 34.5781 81.651 34.8594 80.375 34.8594ZM81.5 32.4609C81.8125 32.1849 81.9688 31.7474 81.9688 31.1484C81.9688 30.5495 81.8099 30.1224 81.4922 29.8672C81.1797 29.612 80.7396 29.4844 80.1719 29.4844H77.9297V32.875H80.1719C80.7396 32.875 81.1823 32.737 81.5 32.4609ZM90.2578 32.5391C89.362 32.5391 88.7604 32.8307 88.4531 33.4141C88.2812 33.7422 88.1953 34.2474 88.1953 34.9297V39H85.9531V30.4844H88.0781V31.9688C88.4219 31.401 88.7214 31.013 88.9766 30.8047C89.3932 30.4557 89.9349 30.2812 90.6016 30.2812C90.6432 30.2812 90.6771 30.2839 90.7031 30.2891C90.7344 30.2891 90.7995 30.2917 90.8984 30.2969V32.5781C90.7578 32.5625 90.6328 32.5521 90.5234 32.5469C90.4141 32.5417 90.3255 32.5391 90.2578 32.5391ZM99.3125 31.5625C100.031 32.4635 100.391 33.5286 100.391 34.7578C100.391 36.0078 100.031 37.0781 99.3125 37.9688C98.5938 38.8542 97.5026 39.2969 96.0391 39.2969C94.5755 39.2969 93.4844 38.8542 92.7656 37.9688C92.0469 37.0781 91.6875 36.0078 91.6875 34.7578C91.6875 33.5286 92.0469 32.4635 92.7656 31.5625C93.4844 30.6615 94.5755 30.2109 96.0391 30.2109C97.5026 30.2109 98.5938 30.6615 99.3125 31.5625ZM96.0312 32.0938C95.3802 32.0938 94.8776 32.3255 94.5234 32.7891C94.1745 33.2474 94 33.9036 94 34.7578C94 35.612 94.1745 36.2708 94.5234 36.7344C94.8776 37.1979 95.3802 37.4297 96.0312 37.4297C96.6823 37.4297 97.1823 37.1979 97.5312 36.7344C97.8802 36.2708 98.0547 35.612 98.0547 34.7578C98.0547 33.9036 97.8802 33.2474 97.5312 32.7891C97.1823 32.3255 96.6823 32.0938 96.0312 32.0938ZM109.742 27.5V39H107.578V37.8203C107.26 38.3255 106.898 38.6927 106.492 38.9219C106.086 39.151 105.581 39.2656 104.977 39.2656C103.982 39.2656 103.143 38.8646 102.461 38.0625C101.784 37.2552 101.445 36.2214 101.445 34.9609C101.445 33.5078 101.779 32.3646 102.445 31.5312C103.117 30.6979 104.013 30.2812 105.133 30.2812C105.648 30.2812 106.107 30.3958 106.508 30.625C106.909 30.849 107.234 31.1615 107.484 31.5625V27.5H109.742ZM103.742 34.7969C103.742 35.5833 103.898 36.2109 104.211 36.6797C104.518 37.1536 104.987 37.3906 105.617 37.3906C106.247 37.3906 106.727 37.1562 107.055 36.6875C107.383 36.2188 107.547 35.612 107.547 34.8672C107.547 33.8255 107.284 33.0807 106.758 32.6328C106.435 32.362 106.06 32.2266 105.633 32.2266C104.982 32.2266 104.503 32.474 104.195 32.9688C103.893 33.4583 103.742 34.0677 103.742 34.7969ZM117.234 37.7969C117.214 37.8229 117.161 37.901 117.078 38.0312C116.995 38.1615 116.896 38.276 116.781 38.375C116.432 38.6875 116.094 38.901 115.766 39.0156C115.443 39.1302 115.062 39.1875 114.625 39.1875C113.365 39.1875 112.516 38.7344 112.078 37.8281C111.833 37.3281 111.711 36.5911 111.711 35.6172V30.4844H113.992V35.6172C113.992 36.1016 114.049 36.4661 114.164 36.7109C114.367 37.1432 114.766 37.3594 115.359 37.3594C116.12 37.3594 116.641 37.0521 116.922 36.4375C117.068 36.1042 117.141 35.6641 117.141 35.1172V30.4844H119.398V39H117.234V37.7969ZM128.922 33.5391H126.641C126.599 33.2214 126.492 32.9349 126.32 32.6797C126.07 32.3359 125.682 32.1641 125.156 32.1641C124.406 32.1641 123.893 32.5365 123.617 33.2812C123.471 33.6771 123.398 34.2031 123.398 34.8594C123.398 35.4844 123.471 35.987 123.617 36.3672C123.883 37.0755 124.383 37.4297 125.117 37.4297C125.638 37.4297 126.008 37.2891 126.227 37.0078C126.445 36.7266 126.578 36.362 126.625 35.9141H128.898C128.846 36.5911 128.602 37.2318 128.164 37.8359C127.466 38.8099 126.432 39.2969 125.062 39.2969C123.693 39.2969 122.685 38.8906 122.039 38.0781C121.393 37.2656 121.07 36.2109 121.07 34.9141C121.07 33.4505 121.427 32.3125 122.141 31.5C122.854 30.6875 123.839 30.2812 125.094 30.2812C126.161 30.2812 127.034 30.5208 127.711 31C128.393 31.4792 128.797 32.3255 128.922 33.5391ZM134.359 37.4141V39.0781L133.305 39.1172C132.253 39.1536 131.534 38.9714 131.148 38.5703C130.898 38.3151 130.773 37.9219 130.773 37.3906V32.1484H129.586V30.5625H130.773V28.1875H132.977V30.5625H134.359V32.1484H132.977V36.6484C132.977 36.9974 133.021 37.2161 133.109 37.3047C133.198 37.388 133.469 37.4297 133.922 37.4297C133.99 37.4297 134.06 37.4297 134.133 37.4297C134.211 37.4245 134.286 37.4193 134.359 37.4141ZM147.344 31.5625C148.062 32.4635 148.422 33.5286 148.422 34.7578C148.422 36.0078 148.062 37.0781 147.344 37.9688C146.625 38.8542 145.534 39.2969 144.07 39.2969C142.607 39.2969 141.516 38.8542 140.797 37.9688C140.078 37.0781 139.719 36.0078 139.719 34.7578C139.719 33.5286 140.078 32.4635 140.797 31.5625C141.516 30.6615 142.607 30.2109 144.07 30.2109C145.534 30.2109 146.625 30.6615 147.344 31.5625ZM144.062 32.0938C143.411 32.0938 142.909 32.3255 142.555 32.7891C142.206 33.2474 142.031 33.9036 142.031 34.7578C142.031 35.612 142.206 36.2708 142.555 36.7344C142.909 37.1979 143.411 37.4297 144.062 37.4297C144.714 37.4297 145.214 37.1979 145.562 36.7344C145.911 36.2708 146.086 35.612 146.086 34.7578C146.086 33.9036 145.911 33.2474 145.562 32.7891C145.214 32.3255 144.714 32.0938 144.062 32.0938ZM154.016 27.4141V29.2266C153.891 29.2109 153.68 29.2005 153.383 29.1953C153.091 29.1849 152.888 29.25 152.773 29.3906C152.664 29.526 152.609 29.6771 152.609 29.8438V30.5625H154.07V32.1328H152.609V39H150.391V32.1328H149.148V30.5625H150.367V30.0156C150.367 29.1042 150.521 28.4766 150.828 28.1328C151.151 27.6224 151.93 27.3672 153.164 27.3672C153.305 27.3672 153.432 27.3724 153.547 27.3828C153.661 27.388 153.818 27.3984 154.016 27.4141ZM163.703 37.4141V39.0781L162.648 39.1172C161.596 39.1536 160.878 38.9714 160.492 38.5703C160.242 38.3151 160.117 37.9219 160.117 37.3906V32.1484H158.93V30.5625H160.117V28.1875H162.32V30.5625H163.703V32.1484H162.32V36.6484C162.32 36.9974 162.365 37.2161 162.453 37.3047C162.542 37.388 162.812 37.4297 163.266 37.4297C163.333 37.4297 163.404 37.4297 163.477 37.4297C163.555 37.4245 163.63 37.4193 163.703 37.4141ZM172.828 34V39H170.555V33.8203C170.555 33.362 170.477 32.9922 170.32 32.7109C170.117 32.3151 169.732 32.1172 169.164 32.1172C168.576 32.1172 168.128 32.3151 167.82 32.7109C167.518 33.1016 167.367 33.6615 167.367 34.3906V39H165.148V27.5234H167.367V31.5938C167.69 31.099 168.062 30.7552 168.484 30.5625C168.911 30.3646 169.359 30.2656 169.828 30.2656C170.354 30.2656 170.831 30.3568 171.258 30.5391C171.69 30.7214 172.044 31 172.32 31.375C172.555 31.6927 172.698 32.0208 172.75 32.3594C172.802 32.6927 172.828 33.2396 172.828 34ZM182.203 36.5C182.146 37.0052 181.883 37.5182 181.414 38.0391C180.685 38.8672 179.664 39.2812 178.352 39.2812C177.268 39.2812 176.312 38.9323 175.484 38.2344C174.656 37.5365 174.242 36.401 174.242 34.8281C174.242 33.3542 174.615 32.224 175.359 31.4375C176.109 30.651 177.081 30.2578 178.273 30.2578C178.982 30.2578 179.62 30.3906 180.188 30.6562C180.755 30.9219 181.224 31.3411 181.594 31.9141C181.927 32.4193 182.143 33.0052 182.242 33.6719C182.299 34.0625 182.323 34.625 182.312 35.3594H176.484C176.516 36.2135 176.784 36.8125 177.289 37.1562C177.596 37.3698 177.966 37.4766 178.398 37.4766C178.857 37.4766 179.229 37.3464 179.516 37.0859C179.672 36.9453 179.81 36.75 179.93 36.5H182.203ZM180 33.8906C179.964 33.3021 179.784 32.8568 179.461 32.5547C179.143 32.2474 178.747 32.0938 178.273 32.0938C177.758 32.0938 177.357 32.2552 177.07 32.5781C176.789 32.901 176.612 33.3385 176.539 33.8906H180ZM193.414 39H188.453V27.4844H193.414C194.128 27.4948 194.721 27.5781 195.195 27.7344C196.003 28 196.656 28.487 197.156 29.1953C197.557 29.7682 197.831 30.388 197.977 31.0547C198.122 31.7214 198.195 32.3568 198.195 32.9609C198.195 34.4922 197.888 35.7891 197.273 36.8516C196.44 38.2839 195.154 39 193.414 39ZM195.203 30.4219C194.833 29.7969 194.102 29.4844 193.008 29.4844H190.789V37H193.008C194.143 37 194.935 36.4401 195.383 35.3203C195.628 34.7057 195.75 33.974 195.75 33.125C195.75 31.9531 195.568 31.0521 195.203 30.4219ZM200.156 31.4062C200.745 30.6562 201.755 30.2812 203.188 30.2812C204.12 30.2812 204.948 30.4661 205.672 30.8359C206.396 31.2057 206.758 31.9036 206.758 32.9297V36.8359C206.758 37.1068 206.763 37.4349 206.773 37.8203C206.789 38.112 206.833 38.3099 206.906 38.4141C206.979 38.5182 207.089 38.6042 207.234 38.6719V39H204.812C204.745 38.8281 204.698 38.6667 204.672 38.5156C204.646 38.3646 204.625 38.1927 204.609 38C204.302 38.3333 203.948 38.6172 203.547 38.8516C203.068 39.1276 202.526 39.2656 201.922 39.2656C201.151 39.2656 200.513 39.0469 200.008 38.6094C199.508 38.1667 199.258 37.5417 199.258 36.7344C199.258 35.6875 199.661 34.9297 200.469 34.4609C200.911 34.2057 201.562 34.0234 202.422 33.9141L203.18 33.8203C203.591 33.7682 203.885 33.7031 204.062 33.625C204.38 33.4896 204.539 33.2786 204.539 32.9922C204.539 32.6432 204.417 32.4036 204.172 32.2734C203.932 32.138 203.578 32.0703 203.109 32.0703C202.583 32.0703 202.211 32.2005 201.992 32.4609C201.836 32.6536 201.732 32.9141 201.68 33.2422H199.531C199.578 32.4974 199.786 31.8854 200.156 31.4062ZM201.812 37.3906C202.021 37.5625 202.276 37.6484 202.578 37.6484C203.057 37.6484 203.497 37.5078 203.898 37.2266C204.305 36.9453 204.516 36.4323 204.531 35.6875V34.8594C204.391 34.9479 204.247 35.0208 204.102 35.0781C203.961 35.1302 203.766 35.1797 203.516 35.2266L203.016 35.3203C202.547 35.4036 202.211 35.5052 202.008 35.625C201.664 35.8281 201.492 36.1432 201.492 36.5703C201.492 36.9505 201.599 37.224 201.812 37.3906ZM212.203 36.7656L213.961 30.4844H216.328L213.406 38.8594C212.844 40.474 212.398 41.474 212.07 41.8594C211.742 42.25 211.086 42.4453 210.102 42.4453C209.904 42.4453 209.745 42.4427 209.625 42.4375C209.505 42.4375 209.326 42.4297 209.086 42.4141V40.6328L209.367 40.6484C209.586 40.6589 209.794 40.651 209.992 40.625C210.19 40.599 210.357 40.5391 210.492 40.4453C210.622 40.3568 210.742 40.1719 210.852 39.8906C210.966 39.6094 211.013 39.4375 210.992 39.375L207.867 30.4844H210.344L212.203 36.7656Z" fill="#909090"/>
<path d="M21.3194 29.3644L17.3167 37.9004C17.1914 38.1584 17.3241 38.3206 17.7443 38.2395L21.0024 37.5318C21.0669 37.5092 21.1379 37.5147 21.1982 37.5469C21.2584 37.5791 21.3024 37.6352 21.3194 37.7014L22.7863 40.7089C22.9263 41.0332 23.0885 41.0996 23.2138 40.8416L27.4745 31.9075L21.3194 29.3644Z" fill="#636363"/>
<path d="M33.659 29.3644L37.6616 37.9004C37.7943 38.1584 37.6543 38.3206 37.2341 38.2395L33.976 37.5318C33.9115 37.51 33.8408 37.5159 33.7808 37.548C33.7207 37.5801 33.6767 37.6356 33.659 37.7014L32.1921 40.7089C32.052 41.0332 31.8972 41.0996 31.7646 40.8416L27.5039 31.9075L33.659 29.3644Z" fill="#636363"/>
<path d="M26.2876 34.3917C26.2876 34.399 26.2728 34.3917 26.2581 34.3917C24.0245 34.1441 21.9305 33.1824 20.2873 31.6495C20.2799 31.6422 20.2578 31.6348 20.2652 31.6274L20.4494 31.2367C20.4568 31.222 20.4716 31.2588 20.4789 31.2662C22.0564 32.7331 24.2457 33.6545 26.4866 33.9273C26.494 33.9273 26.5087 33.9273 26.5087 33.9346L26.2876 34.3917Z" fill="#3A3A3A"/>
<path d="M27.4894 33.9789C33.2826 33.9789 37.9789 29.2826 37.9789 23.4894C37.9789 17.6963 33.2826 13 27.4894 13C21.6963 13 17 17.6963 17 23.4894C17 29.2826 21.6963 33.9789 27.4894 33.9789Z" fill="#909090"/>
<path d="M27.49 32.5341C32.4852 32.5341 36.5346 28.4847 36.5346 23.4895C36.5346 18.4943 32.4852 14.4448 27.49 14.4448C22.4947 14.4448 18.4453 18.4943 18.4453 23.4895C18.4453 28.4847 22.4947 32.5341 27.49 32.5341Z" fill="#636363"/>
<path d="M27.74 32.4996C32.5724 32.4996 36.4898 28.5822 36.4898 23.7498C36.4898 18.9174 32.5724 15 27.74 15C22.9077 15 18.9902 18.9174 18.9902 23.7498C18.9902 28.5822 22.9077 32.4996 27.74 32.4996Z" fill="#909090"/>
<path fill-rule="evenodd" clip-rule="evenodd" d="M27.4395 27.7551H29.5898V19.3H27.4395L25.2891 20.7649V22.6165L27.3281 21.2395H27.4395V27.7551Z" fill="#EAEAEA"/>
<path d="M29.959 16.0886C33.3157 16.89 35.7119 19.8515 35.7949 23.3016C35.878 26.7517 33.6271 29.8251 30.3128 30.7871C32.3473 29.2318 33.6963 26.5781 33.6963 23.5632C33.6963 20.3788 32.1925 17.5998 29.959 16.0886Z" fill="white" fill-opacity="0.2"/>
<path d="M28.6918 34.3917C28.6992 34.3991 28.714 34.3917 28.7213 34.3917C31.0138 34.1042 33.122 33.1828 34.7069 31.6643C34.7143 31.6569 34.7364 31.6496 34.729 31.6422L34.5447 31.2515C34.5373 31.2368 34.5226 31.2736 34.5152 31.281C32.9378 32.7479 30.7411 33.6546 28.4928 33.9273C28.4854 33.9273 28.4707 33.9273 28.4707 33.9347L28.6918 34.3917Z" fill="#3A3A3A"/>
</g>
<defs>
<clipPath id="clip0_100_5">
<rect width="250" height="54" fill="white"/>
</clipPath>
</defs>
</svg>
