<svg width="31" height="31" viewBox="0 0 31 31" fill="none" xmlns="http://www.w3.org/2000/svg">
<path d="M16.0255 3.18245L25.0672 6.07578C25.7802 6.30484 26.2641 6.96789 26.2641 7.71534V18.9442C26.2641 24.1626 18.1972 27.1213 16.0307 27.8223C15.681 27.9359 15.3194 27.9359 14.9698 27.8223C12.8032 27.1213 4.73633 24.1626 4.73633 18.9442V7.71534C4.73633 6.96617 5.22027 6.30312 5.93327 6.07578L14.9749 3.18245C15.3159 3.07395 15.6828 3.07395 16.0255 3.18245Z" fill="#1C1F21" fill-opacity="0.3"/>
<path d="M16.0255 3.18245L25.0672 6.07578C25.7802 6.30484 26.2641 6.96789 26.2641 7.71534V18.9442C26.2641 24.1626 18.1972 27.1213 16.0307 27.8223C15.681 27.9359 15.3194 27.9359 14.9698 27.8223C12.8032 27.1213 4.73633 24.1626 4.73633 18.9442V7.71534C4.73633 6.96617 5.22027 6.30312 5.93327 6.07578L14.9749 3.18245C15.3159 3.07395 15.6828 3.07395 16.0255 3.18245Z" stroke="#1C1F21" stroke-width="1.5" stroke-linecap="round" stroke-linejoin="round"/>
<path d="M11.1895 16.7917L13.9605 19.375L19.8109 11.625" stroke="#1C1F21" stroke-width="1.5" stroke-linecap="round" stroke-linejoin="round"/>
</svg>
