<svg width="29" height="29" viewBox="0 0 29 29" fill="none" xmlns="http://www.w3.org/2000/svg">
<g clip-path="url(#clip0_104_108)">
<path fill-rule="evenodd" clip-rule="evenodd" d="M14.5002 1.61133C7.38199 1.61133 1.61133 7.38181 1.61133 14.5002C1.61133 21.6186 7.38199 27.3891 14.5002 27.3891C21.6184 27.3891 27.3891 21.6186 27.3891 14.5002C27.3891 7.38181 21.6184 1.61133 14.5002 1.61133ZM14.5002 9.66688C11.8309 9.66688 9.66688 11.8308 9.66688 14.5002C9.66688 17.1697 11.8309 19.3336 14.5002 19.3336C17.1695 19.3336 19.3336 17.1697 19.3336 14.5002C19.3336 11.8308 17.1695 9.66688 14.5002 9.66688Z" fill="#1C1F21" fill-opacity="0.4"/>
<path fill-rule="evenodd" clip-rule="evenodd" d="M9.70802 1.66801C11.201 1.1108 12.8149 0.807129 14.4983 0.807129C16.1816 0.807129 17.7956 1.1108 19.2884 1.66801C19.9137 1.90135 20.2314 2.59732 19.9981 3.22253L17.7442 9.26256C17.6378 9.54738 17.4281 9.78166 17.1568 9.91871L17.1535 9.92033C16.8521 10.0726 16.5007 10.0917 16.1846 9.97315C15.6601 9.77646 15.0931 9.66824 14.4966 9.66824C13.8989 9.66824 13.3333 9.7753 12.8079 9.97186C12.5076 10.0842 12.1749 10.0726 11.8832 9.93954C11.5914 9.80651 11.3645 9.56297 11.2524 9.26256L8.99846 3.22253C8.76515 2.59732 9.08283 1.90135 9.70802 1.66801Z" fill="#1C1F21"/>
<path fill-rule="evenodd" clip-rule="evenodd" d="M25.7768 9.00041C26.4019 8.7671 27.0979 9.08478 27.3313 9.70998C27.8885 11.203 28.1922 12.8169 28.1922 14.5002C28.1922 16.182 27.8885 17.7959 27.3313 19.2889C27.0979 19.914 26.4019 20.2317 25.7768 19.9984L19.7367 17.7445C19.5745 17.6839 19.4272 17.5892 19.3048 17.4669L19.3032 17.4653C18.9681 17.1302 18.8598 16.6302 19.0262 16.1865C19.2228 15.662 19.3311 15.0951 19.3311 14.4986C19.3311 13.9008 19.2239 13.3352 19.0274 12.8098C18.9151 12.5095 18.9267 12.1768 19.0597 11.8851C19.1928 11.5934 19.4363 11.3665 19.7367 11.2544L25.7768 9.00041Z" fill="#1C1F21"/>
<path fill-rule="evenodd" clip-rule="evenodd" d="M11.8536 19.0766C12.1536 18.9274 12.5021 18.9095 12.8159 19.0271C13.3404 19.2238 13.9073 19.3319 14.5038 19.3319C15.1015 19.3319 15.6671 19.225 16.1925 19.0284C16.4928 18.9159 16.8255 18.9277 17.1173 19.0606C17.4091 19.1937 17.6359 19.4373 17.7481 19.7376L20.002 25.7777C20.2353 26.4029 19.9176 27.0988 19.2925 27.3322C17.7994 27.8893 16.1854 28.193 14.5022 28.193C12.8188 28.193 11.2049 27.8893 9.71194 27.3322C9.08674 27.0988 8.76906 26.4029 9.00236 25.7777L11.2563 19.7376C11.3635 19.4503 11.5758 19.2146 11.8504 19.0782L11.8536 19.0766Z" fill="#1C1F21"/>
<path fill-rule="evenodd" clip-rule="evenodd" d="M1.66752 9.71144C1.90086 9.08625 2.59684 8.76857 3.22205 9.00187L9.26209 11.2558C9.42239 11.3157 9.56818 11.4089 9.68977 11.5292L9.6914 11.5309C10.0297 11.8658 10.1398 12.3681 9.97265 12.8138C9.77597 13.3383 9.66775 13.9052 9.66775 14.5017C9.66775 15.0995 9.77482 15.6651 9.97136 16.1904C10.0837 16.4908 10.0721 16.8234 9.93905 17.1152C9.80602 17.407 9.56248 17.6338 9.26207 17.746L3.22203 19.9999C2.59683 20.2332 1.90086 19.9155 1.66752 19.2904C1.11032 17.7974 0.806641 16.1834 0.806641 14.5001C0.806641 12.8183 1.11034 11.2043 1.66752 9.71144Z" fill="#1C1F21"/>
</g>
<defs>
<clipPath id="clip0_104_108">
<rect width="29" height="29" fill="white"/>
</clipPath>
</defs>
</svg>
