<svg width="233" height="47" viewBox="0 0 233 47" fill="none" xmlns="http://www.w3.org/2000/svg">
<path d="M130.6 9.30005C131 9.30005 131.1 9.80005 131.1 10.2C131.2 11.8 131.3 13.3 131.3 14.9C131.4 16.4 131.4 17.9 131.4 19.4C132.3 18.7 133.1 18 134.1 17.7C135.7 17 137.6 17 139.2 17.8C140.9 18.7 142 20.3 142.6 22C143.1 23.7 143.3 25.5001 143.2 27.2001C143 29.3001 142.5 31.3 141.3 33C140.6 34 139.7 34.8001 138.5 35.2001C136.6 35.9001 134.6 35.6 132.9 34.6C132.4 34.3 131.9 33.8001 131.5 33.4001C131.3 34.0001 131.2 34.6001 131 35.2001C130.1 35.2001 129.3 35.3 128.4 35.1C128.7 33.7 128.7 32.2 128.8 30.8C128.9 25.7 128.8 20.6 128.8 15.6C128.7 13.6 128.8 11.6 128.5 9.70005C129.1 9.50005 129.9 9.30005 130.6 9.30005ZM137.2 19.8C136.4 19.6 135.6 19.6 134.9 19.7C133.5 19.9 132.4 20.9 131.5 21.9C131.5 22.2 131.5 22.6 131.5 22.9V31C131.5 31.3 131.7 31.5 131.9 31.6C133.3 32.9 135.3 33.5 137.1 33.1C138 32.9 138.8 32.3 139.2 31.5C139.9 30.4 140.1 29.1 140.2 27.8C140.3 26.8 140.4 25.8 140.3 24.9C140.3 23.8 140 22.6 139.4 21.6C138.9 20.6 138.1 20 137.2 19.8ZM148.7 10C149.2 9.80005 149.9 9.80005 150.4 10.1C150.9 10.4 151.3 10.9 151.5 11.4C151.8 12.6 150.9 13.9 149.7 14C148.8 14.1 147.8 13.6 147.5 12.6C147.1 11.7 147.7 10.4 148.7 10ZM65.9998 12.1C67.2998 11.2 68.8998 10.5 70.4998 10.5C72.1998 10.5 73.8998 10.6 75.3998 11.3C75.9998 11.6 76.5998 11.9 77.1998 12.3C76.7998 13 76.2998 13.5 75.7998 14.1C75.1998 13.8 74.5998 13.4 73.8998 13.1C72.2998 12.5 70.3998 12.4 68.7998 13.1C67.3998 13.6 66.2998 14.7 65.5998 16C65.1998 17 64.7998 18 64.5998 19C64.3998 20 64.3998 21 64.2998 22C64.2998 23.3 64.1998 24.7 64.2998 26C64.4998 27.9 65.1998 29.7 66.3998 31.1C67.4998 32.4 69.0998 33.1 70.7998 33.3C71.6998 33.3 72.4998 33.3 73.3998 33.1C74.3998 32.9 75.2998 32.3 76.2998 31.9C76.7998 32.4 77.2998 33.1001 77.7998 33.7001C77.0998 34.1001 76.3998 34.5 75.5998 34.8C73.5998 35.6 71.2998 35.7001 69.1998 35.4001C67.5998 35.1001 66.1998 34.3 64.9998 33.3C63.5998 32.1 62.5998 30.5 61.9998 28.8C61.5998 27.6 61.3998 26.4 61.2998 25.2C61.2998 24.3 61.0998 23.4 61.2998 22.4C61.2998 20.7 61.5998 18.9 62.2998 17.3C62.9998 15.3 64.1998 13.4 65.9998 12.1Z" fill="#808080"/>
<path d="M0 0V47H46.7V0H0ZM31.8 13.5C29.6 17.8 27.3 22.1 25 26.4C24.9 26.6 24.9 26.7 24.9 26.9C24.9 30 24.9 33.1 24.9 36.1C23.8 36.1 22.7 36.1 21.6 36.1C21.6 33.1 21.6 30.1 21.6 27.1C21.6 26.8 21.6 26.4 21.4 26.1C19.3 22.2 17.3 18.3 15.2 14.3C14.7 13.4 14.2 12.5 13.8 11.5C14 11.5 14.2 11.4 14.4 11.4C15.4 11.4 16.4 11.4 17.4 11.5C17.6 11.5 17.6 11.6 17.7 11.7C19.2 14.8 20.7 18 22.3 21.2C22.6 21.9 22.9 22.5 23.3 23.1C23.6 22.6 23.9 22.1 24.2 21.5C25.9 18.1 27.6 14.8 29.3 11.4C30.4 11.4 31.5 11.3 32.7 11.5C32.5 12.4 32.1 12.9 31.8 13.5Z" fill="#808080"/>
<path d="M194.2 13.1C195.1 12.8 196 12.6 197 12.4C196.8 14.1 196.7 15.8 196.7 17.6C198.1 17.6 199.6 17.6 201 17.7C200.8 18.4 200.5 19 200.2 19.6C199 19.6 197.8 19.6 196.5 19.6C196.5 21.2 196.5 22.8 196.5 24.4C196.5 25.6 196.6 26.9 196.5 28.2C196.5 29.6 196.5 31.1 196.6 32.5C196.6 33.1 197.2 33.5 197.7 33.7C198.6 33.9 199.5 33.8 200.4 33.6C200.6 34.1 200.7 34.7 200.7 35.2C199.9 35.6 199 35.7 198.1 35.8C196.9 35.8 195.5 35.6 194.6 34.7C193.9 34 193.9 32.9 193.8 32C193.7 30 193.8 27.9 193.7 25.9C193.7 23.8 193.7 21.8 193.7 19.7C192.9 19.7 192.1 19.7 191.4 19.7C191.4 19 191.4 18.3 191.4 17.7C192.2 17.7 192.9 17.7 193.7 17.7C194 16.1 194 14.5 194.2 13.1ZM88.2 17.1C88.9 17.1 89.7 17.1 90.4 17.3C92 17.8 93.4 19 94.2 20.4C94.9 21.7 95.4 23.1 95.5 24.6C95.6 26.6 95.7 28.6 95 30.5C94.4 32.3 93.2 33.9 91.5 34.8C89.8 35.7 87.8 35.8 86 35.3C84.4 34.9 83 33.8 82 32.4C81 30.9 80.6 29.1 80.6 27.2C80.6 25.5 80.5 23.7 81.1 22C81.6 20.4 82.7 18.9 84.2 17.9C84.9 17.5 85.6 17.1 86.4 17C87 17.1 87.6 17.1 88.2 17.1ZM86.8 19.4C85.9 19.6 85 20.2 84.5 21C83.8 22.2 83.6 23.6 83.6 25C83.5 26 83.6 27 83.7 28C83.9 29.2 84.1 30.5 84.7 31.6C85.3 32.8 86.6 33.3 87.9 33.4C89.1 33.5 90.4 33.2 91.3 32.2C92 31.4 92.4 30.5 92.5 29.4C92.7 28.1 92.7 26.8 92.6 25.6C92.6 24.3 92.4 22.9 91.9 21.6C91.6 20.8 91 20.2 90.3 19.8C89.2 19.2 88 19.1 86.8 19.4ZM100.4 17.7C101.2 17.4 102 17.2 102.9 17.1C103.2 17.9 103.4 18.7 103.5 19.6C104.1 19.3 104.5 18.8 105.1 18.5C106.3 17.6 107.8 17.1 109.3 17.1C109.6 17.1 110 17.2 110.3 17.4C110.8 17.7 111.3 17.9 111.8 18.3C112.2 18.7 112.5 19.3 112.8 19.8C113.5 19.5 114 18.9 114.6 18.5C115.6 17.8 116.8 17.2 118.2 17.1C119.4 17 120.6 17.4 121.5 18.2C121.9 18.6 122.3 19 122.5 19.5C122.7 20 122.8 20.5 122.8 21.1C123 23.9 122.9 26.8 123 29.6C123 31.5 123 33.4 123 35.3C122.1 35.3 121.1 35.3 120.2 35.3C120.2 32.5 120.2 29.6 120.2 26.8C120.2 25 120.2 23.2 120.1 21.3C120 20.7 119.7 20.2 119.2 19.8C118.7 19.5 118 19.5 117.3 19.5C116.2 19.6 115.3 20.3 114.4 21C114 21.3 113.6 21.7 113.2 22C113.1 22.1 113.1 22.3 113.1 22.4C113.1 26.7 113.1 30.9 113.1 35.2C112.2 35.2 111.2 35.2 110.3 35.2V25.2C110.3 24.4 110.3 23.6 110.3 22.8C110.3 22 110.3 21.1 110 20.4C109.4 19.6 108.3 19.4 107.4 19.7C106 20 104.8 20.9 103.7 21.9C103.5 22 103.5 22.2 103.5 22.4C103.5 26.7 103.5 31 103.5 35.3C102.7 35.3 101.9 35.3 101.1 35.3C101 30.9 101.1 26.5 100.9 22.1C100.9 21.1 100.9 20.1 100.7 19.1C100.6 18.6 100.4 18.1 100.4 17.7ZM148.1 17.6C149 17.5 149.9 17.3 150.8 17.1C150.9 19.6 150.9 22.1 150.9 24.5C150.9 28.1 150.9 31.6 150.9 35.2C150 35.2 149 35.2 148.1 35.2C148.1 30.1 148.1 25 148.1 19.9C148.1 19.2 148 18.3 148.1 17.6ZM184 17.2C185.9 17.5 187.5 19.3 187.6 21.3C187.7 24.2 187.6 27.2 187.6 30.1V31C187.6 31.6 187.6 32.2 187.8 32.7C187.9 33.3 188.5 33.6 188.9 33.9C188.5 34.4 188.2 35.1 187.7 35.5C187.4 35.8 187 35.5 186.8 35.3C186.1 34.8 185.7 34.1 185.3 33.3C184.7 33.6 184.3 34.2 183.6 34.5C182.6 35.2 181.4 35.5 180.1 35.5C179 35.5 177.9 35.3 176.9 34.8C175.3 33.9 174.4 32.1 174.5 30.3C174.5 28.6 175.4 26.9 176.7 25.9C178.3 24.7 180.4 24.3 182.4 24.1C183.3 24 184.2 24 185.2 24C185.2 23.1 185.2 22.2 185 21.3C184.9 20.6 184.5 19.8 183.8 19.4C183 19 182 18.9 181.1 19.1C179.4 19.3 177.8 20 176.4 21C176 20.5 175.6 20 175.3 19.4C175.1 19.1 175.4 18.9 175.6 18.8C177.5 17.8 179.5 16.9 181.7 16.9H182.6C183.1 17.1 183.5 17.1 184 17.2ZM182.8 26.1C181.9 26.2 181.1 26.2 180.2 26.4C179.2 26.7 178.3 27.3 177.7 28.2C177.4 28.7 177.4 29.3 177.4 29.9C177.4 30.5 177.3 31.2 177.6 31.8C177.8 32.4 178.3 33 178.9 33.2C179.6 33.5 180.4 33.5 181.2 33.5C182.1 33.4 182.9 32.9 183.6 32.3C184.2 31.8 184.8 31.2 184.8 30.4C184.9 29 184.9 27.5 184.9 26.1C184.2 26.2 183.5 26 182.8 26.1ZM213.2 17.3C214.8 17.7 216.2 18.7 217.2 20C218 21.1 218.5 22.3 218.7 23.6C218.9 24.8 219 26.1 218.9 27.4C218.9 29.5 218.2 31.5 217 33.1C216 34.4 214.4 35.2 212.9 35.5C211 35.8 208.9 35.5 207.2 34.3C205.8 33.3 204.9 31.7 204.4 30C204.1 29.1 204.1 28.3 204 27.4C204 25.9 204 24.5 204.2 23C204.6 21.4 205.4 19.8 206.6 18.6C207.5 17.7 208.7 17.2 209.9 17C211.1 17 212.2 17.1 213.2 17.3ZM210.2 19.4C208.9 19.6 207.8 20.6 207.4 21.8C206.9 23.1 206.9 24.5 206.9 25.8C206.9 27.1 206.9 28.4 207.2 29.6C207.4 30.5 207.6 31.3 208.2 32C208.7 32.7 209.6 33.1 210.4 33.2C210.7 33.3 211.1 33.3 211.4 33.3H211.7H212C212.7 33.2 213.3 33 213.9 32.7C214.6 32.3 215.1 31.6 215.4 30.8C215.7 29.9 215.8 28.9 215.9 28C215.9 26.9 216 25.8 215.9 24.6C215.8 23.4 215.7 22.2 215.1 21.2C214.6 20.4 213.9 19.8 213 19.4C212.1 19.2 211.1 19.2 210.2 19.4ZM223.7 17.8C224.6 17.6 225.4 17.3 226.2 17.1C226.7 18 226.7 19 226.8 19.9C227.2 19.6 227.6 19.2 228 18.8C229.2 17.6 231 16.9 232.7 17.2V17.4C232.3 18.2 232.1 19.1 231.7 20C231.7 20.2 231.4 20.1 231.3 20.1C230.6 20.1 229.7 20.1 229.1 20.5C228.4 20.9 227.9 21.4 227.4 22C226.9 22.6 227 23.4 227 24.1C227 25.1 226.9 26.1 227 27.1C227 29.8 227 32.6 227 35.3C226.1 35.3 225.1 35.3 224.2 35.3C224.2 32.3 224.2 29.2 224.2 26.2C224.2 24.1 224.2 22.1 224.1 20C224 19.2 223.8 18.5 223.7 17.8ZM156.3 17.8C157.1 17.5 158 17.2 158.8 17.2C159.1 18 159.3 18.9 159.4 19.7C160.1 19.2 160.8 18.6 161.5 18.2C163 17.3 164.8 16.7 166.4 17.3C167.4 17.6 168.3 18.2 168.9 19.1C169.4 19.7 169.5 20.6 169.6 21.3C169.8 24.1 169.7 26.8 169.7 29.6C169.7 31.5 169.7 33.3 169.7 35.1C168.8 35.1 167.8 35.1 166.9 35.1C166.9 32.1 166.8 29 166.8 26C166.8 24.3 166.8 22.6 166.6 20.9C166.3 20.1 165.6 19.4 164.7 19.4C164.1 19.4 163.4 19.4 162.8 19.6C161.5 20.1 160.3 20.9 159.2 21.8C159.2 26.2 159.2 30.7 159.2 35.1C158.4 35.1 157.6 35.1 156.8 35.1C156.8 32.6 156.7 30.1 156.7 27.5C156.7 24.9 156.7 22.3 156.5 19.7C156.7 19.2 156.5 18.5 156.3 17.8Z" fill="#808080"/>
</svg>
